<svg width="512" height="512" viewBox="0 0 512 512" fill="none" xmlns="http://www.w3.org/2000/svg">
<circle cx="255.5" cy="256.5" r="255.5" fill="#1A56DB"/>
<path d="M166.2 366V156H256.8C280.2 156 298.3 160.7 311.1 170.1C324.1 179.5 330.6 192.8 330.6 210C330.6 221.4 327.9 231 322.5 238.8C317.3 246.6 310.1 252.5 300.9 256.5C291.9 260.5 282 262.5 271.2 262.5L276.3 255.3C289.7 255.3 301.2 257.4 310.8 261.6C320.6 265.6 328.2 271.7 333.6 279.9C339 287.9 341.7 297.9 341.7 309.9C341.7 327.7 335.1 341.5 321.9 351.3C308.9 361.1 289.2 366 262.8 366H166.2ZM188.4 347.7H262.5C280.9 347.7 295 344.6 304.8 338.4C314.6 332 319.5 321.9 319.5 308.1C319.5 294.5 314.6 284.6 304.8 278.4C295 272 280.9 268.8 262.5 268.8H186V250.5H255.3C272.1 250.5 285.1 247.3 294.3 240.9C303.7 234.5 308.4 225 308.4 212.4C308.4 199.6 303.7 190.1 294.3 183.9C285.1 177.5 272.1 174.3 255.3 174.3H188.4V347.7Z" fill="white"/>
<circle cx="371.5" cy="342.5" r="15.5" fill="white"/>
</svg>
